<?xml version="1.0" encoding="utf-8"?>
<!-- Generator: Adobe Illustrator 19.2.1, SVG Export Plug-In . SVG Version: 6.00 Build 0)  -->
<svg version="1.1" id="Layer_1" xmlns="http://www.w3.org/2000/svg" xmlns:xlink="http://www.w3.org/1999/xlink" x="0px" y="0px"
	 viewBox="0 0 300 300" style="enable-background:new 0 0 300 300;" xml:space="preserve">
<style type="text/css">
	.st0{fill:#BCBEC0;}
</style>
<path class="st0" d="M97.4,69.2c0-2.6-2.1-4.8-4.8-4.8H79.8c-2.6,0-4.8,2.2-4.8,4.8v7h22.4V69.2z M225.2,69.2c0-2.6-2.2-4.8-4.8-4.8
	h-12.9c-2.6,0-4.8,2.2-4.8,4.8v7h22.4V69.2z M252.4,80.6H47.8c-2.6,0-4.8,2.2-4.8,4.8v13h214.3v-13
	C257.2,82.8,255.1,80.6,252.4,80.6z M46.6,231.5c0,2.6,2.2,4.8,4.8,4.8h197.5c2.6,0,4.8-2.2,4.8-4.8V103.4H46.6V231.5z M192.4,131.1
	h43v14.3h-43V131.1z M169.2,121.6l-17.4,35.6h33.6l-62.6,58.6l27.3-45.9h-32L169.2,121.6z M64.7,131.1h14.3v-14.3h14.3v14.3h14.3
	v14.3H93.4v14.3H79.1v-14.3H64.7V131.1z"/>
</svg>
